# xmcd CD database file
#
# Track frame offsets:
#	150
#	12939
#	30333
#	41825
#	54672
#	69285
#	83904
#	95121
#	124823
#	142561
#	162908
#	175251
#	185825
#	194304
#	205739
#	222323
#
# Disc length: 3213 seconds
#
# Revision: 0
# Processed by: cddbd v1.5.2PL0 Copyright (c) Steve Scherf et al.
# Submitted via: CDex 1.70beta2
#
DISCID=de0c8b10
DTITLE=Linda Lee Michelet - Live
DYEAR=2005
DGENRE=Jazz
TTITLE0=Why Don't You Do Right
TTITLE1=Fever
TTITLE2=Close Your Eyes
TTITLE3=Our Love is Here to Stay
TTITLE4=Come On-A-My-House
TTITLE5=Goin' To Chicago Blues
TTITLE6=As Long As I Live
TTITLE7=All Right, Okay, You Win
TTITLE8=See See Rider
TTITLE9=Candy
TTITLE10=On The Street Where You Live
TTITLE11=I Lost My Sugar In Salt Lake City
TTITLE12=I Won't Dance
TTITLE13=Mama's Gone, Goodbye
TTITLE14=Tramp
TTITLE15=We'll Be Together Again
EXTD=YEAR: 2005
EXTT0=
EXTT1=
EXTT2=
EXTT3=
EXTT4=
EXTT5=
EXTT6=
EXTT7=
EXTT8=
EXTT9=
EXTT10=
EXTT11=
EXTT12=
EXTT13=
EXTT14=
EXTT15=
PLAYORDER=
